<svg width="26" height="66" viewBox="0 0 26 66" fill="none" xmlns="http://www.w3.org/2000/svg">
<g clip-path="url(#clip0_177_206)">
<path d="M8.37134 54.2001L12.9999 58.8286L17.6285 54.2001" stroke="#F8F3EE" stroke-width="1.02857" stroke-linecap="round" stroke-linejoin="round"/>
</g>
<g clip-path="url(#clip1_177_206)">
<path fill-rule="evenodd" clip-rule="evenodd" d="M24.5715 13.3143V25.6572C24.5715 32.0479 19.3908 37.2286 13.0001 37.2286C6.60936 37.2286 1.42866 32.0479 1.42866 25.6572V13.3143C1.42866 6.92357 6.60936 1.74286 13.0001 1.74286C19.3908 1.74286 24.5715 6.92357 24.5715 13.3143ZM0.657227 13.3143C0.657227 6.49752 6.18331 0.971436 13.0001 0.971436C19.8169 0.971436 25.3429 6.49752 25.3429 13.3143V25.6572C25.3429 32.474 19.8169 38 13.0001 38C6.18331 38 0.657227 32.474 0.657227 25.6572V13.3143ZM13.0001 10.2286C12.148 10.2286 11.4572 10.9193 11.4572 11.7714V14.8572C11.4572 15.7093 12.148 16.4 13.0001 16.4C13.8522 16.4 14.5429 15.7093 14.5429 14.8572V11.7714C14.5429 10.9193 13.8522 10.2286 13.0001 10.2286Z" fill="#A7A7A7"/>
</g>
<defs>
<clipPath id="clip0_177_206">
<rect width="10.8" height="6.17143" fill="white" transform="translate(7.59998 53.4286)"/>
</clipPath>
<clipPath id="clip1_177_206">
<rect width="24.6857" height="37.0286" fill="white" transform="translate(0.657227 0.971436)"/>
</clipPath>
</defs>
</svg>
