<svg width="33" height="33" viewBox="0 0 33 33" fill="none" xmlns="http://www.w3.org/2000/svg">
<g clip-path="url(#clip0_566_804)">
<path d="M27.9441 6.14879H14.729C14.4394 5.38561 13.9274 4.72692 13.2593 4.25804C12.5911 3.78916 11.7976 3.53167 10.9814 3.51892C10.172 3.5266 9.38462 3.78307 8.72598 4.25353C8.06734 4.72399 7.56935 5.38566 7.29959 6.14879H4.53823C4.35686 6.13995 4.17554 6.16697 4.00463 6.2283C3.83373 6.28963 3.6766 6.38407 3.54224 6.50621C3.40789 6.62836 3.29894 6.7758 3.22165 6.9401C3.14435 7.10441 3.10023 7.28234 3.0918 7.46373C3.10023 7.64511 3.14435 7.82304 3.22165 7.98735C3.29894 8.15165 3.40789 8.2991 3.54224 8.42124C3.6766 8.54338 3.83373 8.63782 4.00463 8.69915C4.17554 8.76049 4.35686 8.7875 4.53823 8.77866H7.29959C7.56935 9.54179 8.06734 10.2035 8.72598 10.6739C9.38462 11.1444 10.172 11.4008 10.9814 11.4085C11.7976 11.3958 12.5911 11.1383 13.2593 10.6694C13.9274 10.2005 14.4394 9.54185 14.729 8.77866H27.9441C28.1254 8.7875 28.3068 8.76049 28.4777 8.69915C28.6486 8.63782 28.8057 8.54338 28.9401 8.42124C29.0744 8.2991 29.1834 8.15165 29.2606 7.98735C29.3379 7.82304 29.3821 7.64511 29.3905 7.46373C29.3821 7.28234 29.3379 7.10441 29.2606 6.9401C29.1834 6.7758 29.0744 6.62836 28.9401 6.50621C28.8057 6.38407 28.6486 6.28963 28.4777 6.2283C28.3068 6.16697 28.1254 6.13995 27.9441 6.14879ZM10.9814 8.77866C10.7213 8.77866 10.4671 8.70154 10.2509 8.55705C10.0346 8.41257 9.86609 8.2072 9.76657 7.96693C9.66704 7.72666 9.641 7.46227 9.69174 7.2072C9.74248 6.95212 9.86771 6.71782 10.0516 6.53393C10.2355 6.35003 10.4698 6.22479 10.7249 6.17406C10.9799 6.12332 11.2443 6.14936 11.4846 6.24888C11.7249 6.34841 11.9302 6.51695 12.0747 6.73319C12.2192 6.94943 12.2963 7.20366 12.2963 7.46373C12.2963 7.81247 12.1578 8.14693 11.9112 8.39353C11.6646 8.64012 11.3301 8.77866 10.9814 8.77866Z" fill="#060916" fill-opacity="0.5"/>
<path d="M27.9439 15.353H25.2483C24.9588 14.5898 24.4468 13.9311 23.7786 13.4623C23.1104 12.9934 22.3169 12.7359 21.5007 12.7231C20.6914 12.7308 19.904 12.9873 19.2453 13.4578C18.5867 13.9282 18.0887 14.5899 17.8189 15.353H4.53808C4.18934 15.353 3.85488 15.4916 3.60828 15.7382C3.36168 15.9847 3.22314 16.3192 3.22314 16.6679C3.22314 17.0167 3.36168 17.3512 3.60828 17.5977C3.85488 17.8443 4.18934 17.9829 4.53808 17.9829H17.8189C18.0887 18.746 18.5867 19.4077 19.2453 19.8781C19.904 20.3486 20.6914 20.6051 21.5007 20.6128C22.3169 20.6 23.1104 20.3425 23.7786 19.8736C24.4468 19.4048 24.9588 18.7461 25.2483 17.9829H27.9439C28.2927 17.9829 28.6271 17.8443 28.8737 17.5977C29.1203 17.3512 29.2589 17.0167 29.2589 16.6679C29.2589 16.3192 29.1203 15.9847 28.8737 15.7382C28.6271 15.4916 28.2927 15.353 27.9439 15.353ZM21.5007 17.9829C21.2407 17.9829 20.9864 17.9058 20.7702 17.7613C20.554 17.6168 20.3854 17.4114 20.2859 17.1712C20.1864 16.9309 20.1603 16.6665 20.2111 16.4114C20.2618 16.1563 20.387 15.922 20.5709 15.7382C20.7548 15.5543 20.9891 15.429 21.2442 15.3783C21.4993 15.3275 21.7637 15.3536 22.0039 15.4531C22.2442 15.5526 22.4496 15.7212 22.5941 15.9374C22.7386 16.1537 22.8157 16.4079 22.8157 16.6679C22.8157 17.0167 22.6771 17.3512 22.4305 17.5977C22.1839 17.8443 21.8495 17.9829 21.5007 17.9829Z" fill="#060916" fill-opacity="0.5"/>
<path d="M27.9439 24.5582H16.7012C16.4117 23.795 15.8997 23.1363 15.2315 22.6674C14.5634 22.1985 13.7698 21.941 12.9537 21.9283C12.1443 21.936 11.3569 22.1924 10.6982 22.6629C10.0396 23.1333 9.54161 23.795 9.27185 24.5582H4.53808C4.18934 24.5582 3.85488 24.6967 3.60828 24.9433C3.36168 25.1899 3.22314 25.5243 3.22314 25.8731C3.22314 26.2218 3.36168 26.5563 3.60828 26.8029C3.85488 27.0495 4.18934 27.188 4.53808 27.188H9.27185C9.54161 27.9512 10.0396 28.6128 10.6982 29.0833C11.3569 29.5537 12.1443 29.8102 12.9537 29.8179C13.7698 29.8051 14.5634 29.5477 15.2315 29.0788C15.8997 28.6099 16.4117 27.9512 16.7012 27.188H27.9439C28.2927 27.188 28.6271 27.0495 28.8737 26.8029C29.1203 26.5563 29.2589 26.2218 29.2589 25.8731C29.2589 25.5243 29.1203 25.1899 28.8737 24.9433C28.6271 24.6967 28.2927 24.5582 27.9439 24.5582ZM12.9537 27.188C12.6936 27.188 12.4394 27.1109 12.2231 26.9664C12.0069 26.8219 11.8383 26.6166 11.7388 26.3763C11.6393 26.136 11.6133 25.8716 11.664 25.6166C11.7147 25.3615 11.84 25.1272 12.0239 24.9433C12.2078 24.7594 12.4421 24.6342 12.6971 24.5834C12.9522 24.5327 13.2166 24.5587 13.4569 24.6582C13.6971 24.7578 13.9025 24.9263 14.047 25.1425C14.1915 25.3588 14.2686 25.613 14.2686 25.8731C14.2686 26.2218 14.1301 26.5563 13.8835 26.8029C13.6369 27.0495 13.3024 27.188 12.9537 27.188Z" fill="#060916" fill-opacity="0.5"/>
</g>
<defs>
<clipPath id="clip0_566_804">
<rect width="31.5584" height="31.5584" fill="white" transform="translate(0.461914 0.889648)"/>
</clipPath>
</defs>
</svg>
