<svg
    width="61"
    height="61"
    viewBox="0 0 61 61"
    fill="none"
    xmlns="http://www.w3.org/2000/svg"
    >
    <g clipPath="url(#clip0_114_354)">
        <path
        d="M60.8626 30.1655L52.2042 21.5072V9.26239C52.2042 9.00319 51.9941 8.79316 51.7349 8.79316H39.4899L30.8318 0.134727C30.6558 -0.0413283 30.3442 -0.0413283 30.1683 0.134727L21.5103 8.79316H9.26468C9.00548 8.79316 8.79545 9.00319 8.79545 9.26239V21.5072L0.137391 30.1655C-0.0457969 30.3489 -0.0457969 30.6458 0.137391 30.829L8.79545 39.4872V51.7321C8.79545 51.9913 9.00548 52.2013 9.26468 52.2013H21.5101L30.1682 60.8598C30.2562 60.9478 30.3754 60.9972 30.5 60.9972C30.6244 60.9972 30.7438 60.9476 30.8318 60.8598L39.4899 52.2013H51.7349C51.9941 52.2013 52.2042 51.9913 52.2042 51.7321V39.4872L60.8626 30.829C60.9506 30.741 61 30.6218 61 30.4972C61 30.3727 60.9506 30.2533 60.8626 30.1655ZM45.4534 36.691V45.4502H36.6935L30.5 51.6441L24.3065 45.4502H15.5462V36.691L9.35308 30.4972L15.5462 24.3033V15.5441H24.3065L30.5 9.35023L36.6935 15.5441H45.4534V24.3033L51.6469 30.4972L45.4534 36.691Z"
        fill="white"
        />
        <path
        d="M42.9614 18.0365H35.6609L30.4999 12.8748L25.3388 18.0365H18.0385V25.3356L12.8773 30.4972L18.0385 35.6587V42.9579H25.3388L30.4999 48.1196L35.6607 42.9579H42.9612V35.6587L48.1224 30.4972L42.9612 25.3356V18.0365H42.9614ZM39.4581 32.7882H36.0305L38.454 35.2113L38.5786 38.5758L35.214 38.4512L32.7905 36.0279V39.455L30.4999 41.922L28.2092 39.4548V36.0274L25.7857 38.451L22.4211 38.5757L22.5457 35.2111L24.9692 32.7876L21.5419 32.788L19.0749 30.4968L21.5419 28.206L24.9692 28.2057L22.5457 25.7825L22.4211 22.418L25.7857 22.5426L28.2092 24.9661V21.5388L30.4999 19.0716L32.7907 21.5388V24.9661L35.2142 22.5426L38.5788 22.418L38.4541 25.7825L36.0307 28.206H39.4583L41.9248 30.4968L39.4581 32.7882Z"
        fill="white"
        />
        <path
        d="M28.2979 25.1812L25.1833 28.2955V32.6992L28.2975 35.8134H32.7019L35.8157 32.6995V28.2952L32.7019 25.1812H28.2979Z"
        fill="white"
        />
    </g>
    <defs>
        <clipPath id="clip0_114_354">
        <rect width="61" height="61" fill="white" />
        </clipPath>
    </defs>
    </svg>