<svg width="12" height="12" viewBox="0 0 12 12" fill="none" xmlns="http://www.w3.org/2000/svg">
<path d="M10.0097 8.1325L10.3625 6.0926C10.4506 5.5831 10.0588 5.1171 9.54226 5.1171H6.95171C6.69496 5.1171 6.49946 4.88664 6.54101 4.63299L6.87236 2.61071C6.92616 2.28218 6.91081 1.946 6.82721 1.62376C6.75796 1.35682 6.55201 1.14248 6.28116 1.05547L6.20866 1.03218C6.04496 0.979591 5.86631 0.991826 5.71196 1.0662C5.54211 1.14806 5.41781 1.29737 5.37176 1.47495L5.13391 2.39187C5.05821 2.68362 4.94801 2.96523 4.80585 3.23131C4.59817 3.62009 4.27708 3.93123 3.94331 4.21885L3.22395 4.83875C3.02112 5.01355 2.9146 5.2753 2.93768 5.5422L3.34376 10.2386C3.38101 10.6693 3.74116 11 4.17305 11H6.49736C8.23801 11 9.72351 9.7872 10.0097 8.1325Z" fill="#787877"/>
<path fill-rule="evenodd" clip-rule="evenodd" d="M1.35883 4.74254C1.55946 4.73389 1.73131 4.88482 1.74861 5.0849L2.23441 10.7032C2.26561 11.0641 1.98134 11.3751 1.61836 11.3751C1.27645 11.3751 1 11.0977 1 10.7565V5.1172C1 4.91638 1.1582 4.7512 1.35883 4.74254Z" fill="#787877"/>
</svg>
