<svg width="12" height="12" viewBox="0 0 12 12" fill="none" xmlns="http://www.w3.org/2000/svg">
<path fill-rule="evenodd" clip-rule="evenodd" d="M10.3855 6C10.3855 5.8206 10.2885 5.7028 10.0944 5.46715C9.38436 4.60507 7.81821 3 6.00036 3C4.1825 3 2.6164 4.60507 1.90635 5.46715C1.71227 5.7028 1.61523 5.8206 1.61523 6C1.61523 6.1794 1.71227 6.2972 1.90635 6.53285C2.6164 7.39495 4.1825 9 6.00036 9C7.81821 9 9.38436 7.39495 10.0944 6.53285C10.2885 6.2972 10.3855 6.1794 10.3855 6ZM6.00036 7.5C6.82881 7.5 7.50036 6.82845 7.50036 6C7.50036 5.17155 6.82881 4.5 6.00036 4.5C5.17196 4.5 4.50037 5.17155 4.50037 6C4.50037 6.82845 5.17196 7.5 6.00036 7.5Z" fill="#787877"/>
</svg>
